<svg xmlns="http://www.w3.org/2000/svg" width="375" viewBox="0 0 375 375" height="375" version="1.0"><defs><clipPath id="a"><path d="M 2 2.4375 L 373 2.4375 L 373 372.1875 L 2 372.1875 Z M 2 2.4375"/></clipPath></defs><g clip-path="url(#a)"><path fill="#B0AEBD" d="M 166.863281 11.335938 L 166.839844 11.335938 L 11.074219 167.273438 C 0.015625 178.351562 0.015625 196.292969 11.074219 207.351562 C 22.128906 218.429688 40.066406 218.429688 51.121094 207.351562 L 159.128906 99.234375 L 159.128906 343.835938 C 159.128906 359.496094 171.8125 372.179688 187.445312 372.179688 C 203.085938 372.179688 215.753906 359.496094 215.753906 343.835938 L 215.753906 99.234375 L 323.808594 207.398438 C 334.855469 218.476562 352.800781 218.476562 363.847656 207.398438 C 374.914062 196.316406 374.914062 178.375 363.847656 167.316406 L 208.113281 11.40625 L 208.089844 11.40625 C 202.90625 5.898438 195.582031 2.445312 187.445312 2.445312 C 179.339844 2.445312 172.027344 5.875 166.863281 11.335938 Z M 166.863281 11.335938"/></g></svg>