<svg xmlns="http://www.w3.org/2000/svg" width="375" viewBox="0 0 375 375" height="375" version="1.0"><defs><clipPath id="a"><path d="M 75.464844 6.613281 L 299.714844 6.613281 L 299.714844 368.113281 L 75.464844 368.113281 Z M 75.464844 6.613281"/></clipPath></defs><path fill="#F00" d="M 187.960938 362.359375 C 179.960938 323.164062 165.859375 290.542969 148.785156 260.3125 C 136.113281 237.886719 121.441406 217.1875 107.859375 195.441406 C 103.328125 188.183594 99.417969 180.511719 95.0625 172.980469 C 86.351562 157.914062 79.289062 140.449219 79.738281 117.789062 C 80.175781 95.65625 86.589844 77.898438 95.835938 63.378906 C 111.046875 39.496094 136.519531 19.917969 170.699219 14.773438 C 198.648438 10.566406 224.847656 17.675781 243.429688 28.523438 C 258.613281 37.386719 270.371094 49.230469 279.308594 63.183594 C 288.636719 77.75 295.0625 94.957031 295.601562 117.402344 C 295.878906 128.902344 293.992188 139.550781 291.335938 148.386719 C 288.644531 157.328125 284.320312 164.800781 280.476562 172.785156 C 272.964844 188.371094 263.546875 202.648438 254.097656 216.933594 C 225.949219 259.492188 199.53125 302.890625 187.960938 362.359375 Z M 187.960938 362.359375" fill-rule="evenodd"/><g clip-path="url(#a)"><path transform="matrix(.2063 0 0 .20598 -34.413 -41.27)" fill="none" d="M 1077.904775 1959.596029 C 1039.126625 1769.305048 970.772561 1610.93152 888.009233 1464.164339 C 826.585249 1355.288464 755.466727 1254.794952 689.630971 1149.218921 C 667.666784 1113.98266 648.713205 1076.73615 627.601078 1040.172366 C 585.376822 967.025833 551.142986 882.235024 553.32047 772.221273 C 555.44115 664.767745 586.531835 578.55459 631.350137 508.063103 C 705.08164 392.113427 828.554452 297.062759 994.232585 272.086357 C 1129.709961 251.661463 1256.704616 286.177068 1346.776717 338.841813 C 1420.375677 381.872533 1477.368955 439.373255 1520.69142 507.114872 C 1565.907349 577.833934 1597.054838 661.373078 1599.667819 770.343775 C 1601.012179 826.175612 1591.866746 877.873162 1578.991188 920.771128 C 1565.945218 964.18114 1544.984568 1000.460455 1526.352878 1039.224135 C 1489.941558 1114.892962 1444.290132 1184.208642 1398.487229 1253.562252 C 1262.044186 1460.181769 1133.98919 1670.878679 1077.904775 1959.596029 Z M 1077.904775 1959.596029" stroke="#000" stroke-width="37" stroke-miterlimit="10"/></g><path fill="#FF1616" d="M 226.339844 111.164062 C 226.339844 112.398438 226.277344 113.632812 226.15625 114.863281 C 226.035156 116.09375 225.851562 117.316406 225.613281 118.53125 C 225.371094 119.742188 225.070312 120.941406 224.710938 122.125 C 224.351562 123.308594 223.933594 124.46875 223.460938 125.613281 C 222.984375 126.757812 222.457031 127.871094 221.871094 128.964844 C 221.289062 130.054688 220.652344 131.113281 219.964844 132.140625 C 219.277344 133.171875 218.539062 134.164062 217.753906 135.117188 C 216.96875 136.074219 216.136719 136.988281 215.261719 137.863281 C 214.382812 138.738281 213.46875 139.566406 212.511719 140.351562 C 211.554688 141.136719 210.558594 141.871094 209.53125 142.558594 C 208.5 143.246094 207.4375 143.882812 206.347656 144.464844 C 205.253906 145.046875 204.136719 145.578125 202.992188 146.050781 C 201.847656 146.523438 200.679688 146.9375 199.496094 147.296875 C 198.308594 147.65625 197.109375 147.957031 195.894531 148.199219 C 194.679688 148.441406 193.457031 148.621094 192.222656 148.742188 C 190.992188 148.863281 189.753906 148.925781 188.515625 148.925781 C 187.277344 148.925781 186.042969 148.863281 184.808594 148.742188 C 183.578125 148.621094 182.351562 148.441406 181.136719 148.199219 C 179.921875 147.957031 178.722656 147.65625 177.539062 147.296875 C 176.351562 146.9375 175.1875 146.523438 174.042969 146.050781 C 172.898438 145.578125 171.78125 145.046875 170.6875 144.464844 C 169.59375 143.882812 168.535156 143.246094 167.503906 142.558594 C 166.476562 141.871094 165.480469 141.136719 164.523438 140.351562 C 163.566406 139.566406 162.648438 138.738281 161.773438 137.863281 C 160.898438 136.988281 160.066406 136.074219 159.28125 135.117188 C 158.496094 134.164062 157.757812 133.171875 157.070312 132.140625 C 156.382812 131.113281 155.746094 130.054688 155.160156 128.964844 C 154.578125 127.871094 154.046875 126.753906 153.574219 125.613281 C 153.101562 124.46875 152.683594 123.308594 152.324219 122.125 C 151.964844 120.941406 151.664062 119.742188 151.421875 118.53125 C 151.179688 117.316406 151 116.09375 150.878906 114.863281 C 150.757812 113.632812 150.695312 112.398438 150.695312 111.164062 C 150.695312 109.925781 150.757812 108.691406 150.878906 107.460938 C 151 106.230469 151.179688 105.007812 151.421875 103.796875 C 151.664062 102.582031 151.964844 101.382812 152.324219 100.199219 C 152.683594 99.015625 153.101562 97.855469 153.574219 96.710938 C 154.046875 95.570312 154.578125 94.453125 155.160156 93.363281 C 155.746094 92.269531 156.382812 91.210938 157.070312 90.183594 C 157.757812 89.15625 158.496094 88.164062 159.28125 87.207031 C 160.066406 86.25 160.898438 85.335938 161.773438 84.460938 C 162.648438 83.585938 163.566406 82.757812 164.523438 81.972656 C 165.480469 81.1875 166.472656 80.453125 167.503906 79.765625 C 168.535156 79.078125 169.59375 78.441406 170.6875 77.859375 C 171.78125 77.277344 172.898438 76.75 174.042969 76.277344 C 175.1875 75.800781 176.351562 75.386719 177.539062 75.027344 C 178.722656 74.667969 179.921875 74.367188 181.136719 74.125 C 182.351562 73.886719 183.578125 73.703125 184.808594 73.582031 C 186.042969 73.460938 187.277344 73.402344 188.515625 73.402344 C 189.753906 73.402344 190.992188 73.460938 192.222656 73.582031 C 193.457031 73.703125 194.679688 73.886719 195.894531 74.125 C 197.109375 74.367188 198.3125 74.667969 199.496094 75.027344 C 200.679688 75.386719 201.847656 75.800781 202.992188 76.277344 C 204.136719 76.75 205.253906 77.277344 206.347656 77.859375 C 207.4375 78.441406 208.5 79.078125 209.53125 79.765625 C 210.558594 80.453125 211.554688 81.1875 212.511719 81.972656 C 213.46875 82.757812 214.386719 83.585938 215.261719 84.460938 C 216.136719 85.335938 216.96875 86.25 217.753906 87.207031 C 218.539062 88.164062 219.277344 89.15625 219.964844 90.183594 C 220.652344 91.210938 221.289062 92.269531 221.871094 93.363281 C 222.457031 94.453125 222.984375 95.570312 223.460938 96.710938 C 223.933594 97.855469 224.351562 99.015625 224.710938 100.199219 C 225.070312 101.382812 225.371094 102.582031 225.613281 103.796875 C 225.851562 105.007812 226.035156 106.230469 226.15625 107.460938 C 226.277344 108.691406 226.339844 109.925781 226.339844 111.164062 Z M 226.339844 111.164062"/><g fill="#FFF"><g><g><path d="M 14.3125 0 C 13.363281 0 12.628906 -0.28125 12.109375 -0.84375 C 11.585938 -1.40625 11.328125 -2.125 11.328125 -3 L 11.328125 -88.125 C 11.328125 -88.988281 11.585938 -89.703125 12.109375 -90.265625 C 12.628906 -90.835938 13.363281 -91.125 14.3125 -91.125 L 21.21875 -91.125 C 22.175781 -91.125 22.914062 -90.835938 23.4375 -90.265625 C 23.957031 -89.703125 24.21875 -88.988281 24.21875 -88.125 L 24.21875 -3 C 24.21875 -2.125 23.957031 -1.40625 23.4375 -0.84375 C 22.914062 -0.28125 22.175781 0 21.21875 0 Z M 14.3125 0" transform="translate(143.105 174.726)"/></g></g></g><g fill="#FFF"><g><g><path d="M 14.3125 0 C 13.363281 0 12.628906 -0.28125 12.109375 -0.84375 C 11.585938 -1.40625 11.328125 -2.125 11.328125 -3 L 11.328125 -88 C 11.328125 -88.945312 11.585938 -89.703125 12.109375 -90.265625 C 12.628906 -90.835938 13.363281 -91.125 14.3125 -91.125 L 47.375 -91.125 C 53.800781 -91.125 59.378906 -90.082031 64.109375 -88 C 68.835938 -85.914062 72.503906 -82.8125 75.109375 -78.6875 C 77.710938 -74.5625 79.015625 -69.421875 79.015625 -63.265625 C 79.015625 -57.097656 77.710938 -51.972656 75.109375 -47.890625 C 72.503906 -43.816406 68.835938 -40.738281 64.109375 -38.65625 C 59.378906 -36.570312 53.800781 -35.53125 47.375 -35.53125 L 24.34375 -35.53125 L 24.34375 -3 C 24.34375 -2.125 24.0625 -1.40625 23.5 -0.84375 C 22.9375 -0.28125 22.175781 0 21.21875 0 Z M 24.21875 -46.46875 L 46.734375 -46.46875 C 53.148438 -46.46875 57.960938 -47.898438 61.171875 -50.765625 C 64.390625 -53.628906 66 -57.796875 66 -63.265625 C 66 -68.640625 64.4375 -72.800781 61.3125 -75.75 C 58.1875 -78.707031 53.328125 -80.1875 46.734375 -80.1875 L 24.21875 -80.1875 Z M 24.21875 -46.46875" transform="translate(166.663 174.726)"/></g></g></g></svg>